<svg xmlns="http://www.w3.org/2000/svg" viewBox="0 0 1920 1080"><path fill="#010101" d="m0 0v930c19.028 0.053 19.028 33.947 0 34v5c6.5943-1.487 23.988-3.857 29.479 0.845 3.6721 3.144 2.521 9.871 2.521 14.155 0 4.387 1.0963 10.646-1.521 14.466-4.1185 6.014-24.082 5.224-29.479 1.534-0.70304 1.76-0.88442 3.08-1 5 19.185 0.05 18.937 34.95 0 35v5c3.9112-2.06 7.6494-2 12-2 4.803 0 12.262-1.37 16.466 1.41 4.4677 2.96 3.3328 9.01 3.8386 13.59 0.545 4.93 1.8387 10.89-1.6482 15.09-4.4343 5.34-24.357 4.53-29.657 0.91-0.70304 1.76-0.88442 3.08-1 5 639.65 0.38 1279.4 0.08 1919 0l1-39c-4.49 0-10.37 0.98-14.19-1.87-5.61-4.16-6.42-25.11-1.59-30.03 4.04-4.12 10.54-3.1 15.78-3.1v-41c-5.05 0-11.61 1.042-15.59-2.784-4.55-4.373-4.38-24.684 0.5-28.737 4.11-3.413 10.12-2.479 15.09-2.479v-930h-1920z"/><path fill="#fff" d="m1072 784v7h-12v5h-12v7h-7v12h7v6h5v19h-5v7h-7v5h12v-5h7v-7h50v7h5v5h12v-5h-5v-7h-7v-19h7v-6h5v-12h-5v-7h-12v-5h-12v-7h-26z"/><path fill="#d7454d" d="m1053 798v17h13v-6h5v-11h-18m46 0v11h4v6h12v-17h-16m-20 5v6h-7v19h7v6h12v-6h7v-19h-7v-6h-12m-44 12v32h13v-7h5v-19h-5v-6h-13m87 0v6h-7v19h7v7h12v-32h-12m-258 15v6h-7v7h59v-7h-21v-6h-31z"/><path fill="#ffd17d" d="m1060 840v8c0.89-2.36 0.97-4.47 1-7h11c-3.8-1.421-7.97-1-12-1z"/><path fill="#010101" d="m1072 840v12h7v-12h-7z"/><path fill="#ffc963" d="m1079 840v12h-7v-11h-11l-1 24h-7v-6h-5v-7h-7v7h-6v12h13v7h5v-7h7v-6h12v6h26v-6h12v6h6v7h6v-7h12v-12h-7v-7h-5v7h-7v6h-5l-1-24h-11v11h-7v-11c-4.11-2e-3 -7.98-0.094-12-1z"/><path fill="#ffd17d" d="m1080 840c3.52 1.316 7.27 1 11 1-3.52-1.316-7.27-1-11-1z"/><path fill="#010101" d="m1091 840v12h7v-12h-7z"/><path fill="#ffd17d" d="m1098 840c3.52 1.316 7.27 1 11 1v7c1-2.655 0.98-5.166 1-8h-12z"/><path fill="#5f6f39" d="m858 843v6h6v12h-7v-11h-5v17h12v-6h12v-6h-6v-6c4.58-0.243 6.133-1.458 7-6h-19z"/><path fill="#ffc963" d="m870 849v6h6v6h-12v14h43v-7h-17v-7h5v-6h7v6h19v-6h-5v-6h-14v-6h-7v11h-5v-11c-9.069 0-12.422 5.184-20 6z"/><path fill="#5f6f39" d="m890 843v11h5v-11h-5z"/><path fill="#d7454d" d="m1053 847v5h7v-5h-7m57 0v5h5v-5h-5z"/><path fill="#ffc963" d="m857 849v12h7v-12h-7z"/><path fill="#010101" d="m1048 852v7h5v6h7v-13h-12m62 0v13h5v-6h7v-7h-12z"/><path fill="#5f6f39" d="m895 855v6h-5v7l25-1v-6h-13v-6h-7z"/><path fill="#010101" d="m1079 858v7h12v-7h-12z"/><path fill="#d7454d" d="m1060 865v6h-7v7h-5v17h18v-12h6v-5h27v5h4v12h19v-17h-6v-7h-6v-6h-12v6h-26v-6h-12z"/><path fill="#5f6f39" d="m852 876v5h-6v7h-6v6h17v7h7v-7h6v-19l-18 1z"/><path fill="#d7454d" d="m870 875v19h-6v12h-7c0 14.612 6.051 13 19 13v-5h14v5c12.497 0 17 0.654 17-13h-5v-12h-7v-19h-5v12h-14v-12h-6z"/><path fill="#5f6f39" d="m876 875v12h14v-12h-14z"/><path fill="#ffc963" d="m1072 878v5h-6v11h37v-11h-4v-5h-27z"/><path fill="#5f6f39" d="m895 881v13h7v7h5v-7h20v-6h-7v-7h-25z"/><path fill="#ffc963" d="m839 894v19h18v-7h7v-5h-7v-7h-18m31 0v7h6v-7h-6m20 0v7h5v-7h-5m17 0v7h-5v5h5v7h21v-19h-21z"/><path fill="#ffd17d" d="m1066 894c10.31 3.852 26 1 37 1-10.31-3.852-26-1-37-1z"/><path fill="#fff" d="m1053 895v7h-5v7h12v5h6v7h6v12h26v-12h5v-7h7v-5h12v-7h-7v-7h-62z"/><path fill="#d7454d" d="m1041 909v5h-6v19h37v-12h-6v-7h-6v-5h-19m69 0v5h-7v7h-5v12h35v-19h-5v8h-7v-9h6v-4h-17z"/><path fill="#fff" d="m1121 913v9h7c-0.05-5.816-0.72-8.674-7-9m-80 1v7h7v-7h-7z"/><path fill="#8c8c8c" d="m1133 914c0 5.322-1.93 15.032 2 19-1.4-6.201 0.2-13.104-2-19z"/><path fill="#5f6f39" d="m852 920v7h-6v6h25v-14l-19 1m42-1v14c9.067 0 18 0.175 27-1-0.951-3.668-2.263-4.588-6-5v-7l-21-1z"/><path fill="#cfcfcf" d="m1415.4 929.04c-5.36 2.945-3.41 12.923-3.41 17.965 0 4.151-1.18 10.649 1.41 14.216 3.66 5.031 22.95 4.192 27.98 1.486 6.54-3.516 7.36-26.384 3.09-32.054-3.56-4.725-24.21-4.289-29.07-1.613m37.12 0c-5.29 2.95-3.53 11.953-3.53 16.965 0 4.499-1 10.565 1.73 14.466 3.84 5.49 24.21 5.578 29.74 2.499 5.46-3.042 3.53-12.796 3.53-17.965 0-4.198 1.17-10.641-1.52-14.216-3.66-4.864-24.92-4.551-29.95-1.749m38 0c-5.74 3.199-5.68 27.305-2.01 32.181 4.11 5.454 24.1 3.386 29.26 0.136 4.91-3.089 3.22-11.418 3.22-16.352 0-4.218 1.18-10.761-1.52-14.352-3.54-4.7-24.11-4.307-28.95-1.613m38.25-0.059c-5.55 2.991-3.78 11.85-3.78 17.024 0 4.402-1.11 10.671 1.6 14.466 3.89 5.44 22.4 5.399 27.93 2.499 6.48-3.404 7.07-26.707 2.95-32.181-3.61-4.791-23.73-4.488-28.7-1.808m37.75 0.059c-5.46 3.042-3.53 12.796-3.53 17.965 0 4.198-1.17 10.641 1.52 14.216 3.62 4.804 23.99 4.51 28.95 1.749 5.46-3.042 3.53-12.796 3.53-17.965 0-4.198 1.17-10.641-1.52-14.216-3.62-4.804-23.99-4.51-28.95-1.749m-1566.5 0.965v34c19.23-0.014 19.23-33.986 0-34m19.779 0.976c-5.9262 3.192-5.9484 25.34-2.2582 30.24 3.662 4.864 24.917 4.551 29.945 1.749 5.6408-3.143 5.6025-25.414 2.0126-30.181-3.6529-4.852-24.65-4.529-29.7-1.808m38 0c-5.9262 3.192-5.9484 25.34-2.2582 30.24 3.6219 4.811 23.926 4.483 28.945 1.831 5.4711-2.892 5.624-25.402 2.4986-30.208-3.242-4.986-24.414-4.434-29.186-1.863m37.754 0.059c-5.6264 3.135-5.6962 25.983-1.8163 30.553 3.7172 4.378 23.932 4.062 28.749 1.377 5.647-3.146 5.605-25.547 2.013-30.317-3.539-4.7-24.111-4.307-28.945-1.613m37.94-0.141c-6.482 2.846-6.965 25.041-3.062 30.241 3.765 5.015 23.834 4.364 29.241 2.207 6.551-2.613 6.589-25.56 2.826-30.558-3.78-5.021-23.664-4.235-29.005-1.89m37.305 0.082c-5.926 3.192-5.948 25.34-2.258 30.24 3.793 5.037 24.69 4.409 29.81 1.486 5.603-3.198 5.985-25.022 2.066-29.728-4.097-4.919-24.276-4.876-29.618-1.998m38 0c-5.926 3.192-5.948 25.34-2.258 30.24 3.622 4.811 23.926 4.483 28.945 1.831 5.471-2.892 5.624-25.402 2.499-30.208-3.242-4.986-24.414-4.434-29.186-1.863m37.755 0.059c-5.627 3.135-5.697 25.983-1.817 30.553 3.717 4.378 23.932 4.062 28.749 1.377 5.646-3.146 5.605-25.547 2.013-30.317-3.539-4.7-24.111-4.307-28.945-1.613m37.94-0.141c-6.482 2.846-6.965 25.041-3.062 30.241 3.765 5.015 23.834 4.364 29.241 2.207 6.551-2.613 6.589-25.561 2.826-30.558-3.78-5.021-23.664-4.235-29.005-1.89m37.06 0.141c-5.602 3.122-5.614 25.376-2.122 30.181 3.509 4.829 24.093 4.453 29.054 1.831 5.671-2.997 5.559-25.69 2.013-30.399-3.539-4.7-24.111-4.307-28.945-1.613m38.245-0.059c-5.926 3.192-5.948 25.34-2.258 30.24 3.617 4.804 23.991 4.51 28.945 1.749 5.641-3.143 5.603-25.414 2.013-30.181-3.607-4.791-23.725-4.488-28.7-1.808m37.755 0.059c-5.627 3.135-5.697 25.983-1.817 30.553 3.717 4.378 23.932 4.062 28.749 1.377 5.646-3.146 5.605-25.547 2.013-30.317-3.539-4.7-24.111-4.307-28.945-1.613m37 0c-5.602 3.122-5.614 25.376-2.122 30.181 3.548 4.882 25.084 4.519 30.054 1.749 5.641-3.143 5.603-25.414 2.013-30.181-3.662-4.864-24.917-4.551-29.945-1.749m38 0c-5.602 3.122-5.614 25.376-2.122 30.181 3.509 4.829 24.093 4.453 29.054 1.831 5.671-2.997 5.559-25.69 2.013-30.399-3.539-4.7-24.111-4.307-28.945-1.613m38.245-0.059c-5.926 3.192-5.948 25.34-2.258 30.24 3.617 4.804 23.991 4.51 28.945 1.749 5.641-3.143 5.603-25.414 2.013-30.181-3.607-4.791-23.726-4.488-28.7-1.808m37.755 0.059c-5.627 3.135-5.697 25.983-1.817 30.553 3.718 4.378 23.932 4.062 28.749 1.377 5.647-3.146 5.605-25.547 2.013-30.317-3.539-4.7-24.111-4.307-28.945-1.613m37.245-0.059c-5.926 3.192-5.948 25.34-2.258 30.24 3.793 5.037 24.69 4.409 29.81 1.486 5.603-3.198 5.986-25.022 2.066-29.728-4.097-4.919-24.276-4.876-29.618-1.998m37.755 0.059c-5.602 3.122-5.614 25.376-2.122 30.181 3.509 4.829 24.093 4.453 29.054 1.831 5.671-2.997 5.559-25.69 2.013-30.399-3.539-4.7-24.111-4.307-28.945-1.613m38.245-0.059c-5.932 3.195-5.95 25.472-2.258 30.376 3.539 4.7 24.111 4.307 28.945 1.613 5.641-3.143 5.603-25.414 2.013-30.181-3.607-4.791-23.726-4.488-28.7-1.808m37.695 0c-6.447 3.006-6.863 24.025-3.324 29.49 3.593 5.549 24.947 5.491 30.316 2.499 5.676-3.163 5.805-26.68 1.427-30.985-4.179-4.108-23.34-3.373-28.419-1.004m37.305 0c-5.926 3.192-5.948 25.34-2.258 30.24 3.793 5.037 24.69 4.409 29.81 1.486 5.607-3.2 5.989-25.154 2.066-29.863-4.017-4.824-24.403-4.673-29.618-1.863m37.755 0.059c-5.602 3.122-5.614 25.376-2.122 30.181 3.509 4.829 24.093 4.453 29.054 1.831 5.671-2.997 5.559-25.69 2.013-30.399-3.539-4.7-24.111-4.307-28.945-1.613m38-0.082c-5.581 2.949-5.597 25.753-2.249 30.526 3.247 4.63 24.554 4.065 29.181 1.486 5.641-3.143 5.603-25.414 2.013-30.181-3.622-4.811-23.926-4.483-28.945-1.831m151 0c-5.581 2.949-5.597 25.753-2.249 30.526 3.247 4.63 24.554 4.065 29.181 1.486 5.641-3.143 5.603-25.414 2.013-30.181-3.622-4.811-23.926-4.483-28.945-1.831m37.246 0.023c-5.927 3.192-5.949 25.34-2.259 30.24 3.659 4.864 24.919 4.551 29.949 1.749 5.68-3.166 5.67-26.124 1.86-30.858-3.43-4.258-24.96-3.607-29.55-1.131m133.22-0.976c0 1.797 0.01 1.521 1 3h-24c0 7.133-2.91 22.501 1.29 28.479 3.43 4.901 27.65 4.436 31.19-0.263 6.95-9.23 3.03-31.11-9.48-31.216m17.78 0.976c-5.93 3.192-5.95 25.34-2.26 30.24 3.79 5.037 24.69 4.409 29.81 1.486 5.6-3.198 5.99-25.022 2.07-29.728-4.1-4.919-24.28-4.876-29.62-1.998m37.75-0.023c-5.58 2.949-5.59 25.753-2.24 30.526 3.24 4.63 24.55 4.064 29.18 1.486 5.64-3.143 5.6-25.414 2.01-30.181-3.62-4.811-23.93-4.483-28.95-1.831m37.25 0.023c-5.93 3.192-5.95 25.34-2.26 30.24 3.66 4.864 24.92 4.551 29.95 1.749 5.64-3.143 5.6-25.414 2.01-30.181-3.65-4.852-24.65-4.529-29.7-1.808m38 0c-5.93 3.192-5.95 25.34-2.26 30.24 3.62 4.81 23.93 4.483 28.95 1.831 5.47-2.891 5.62-25.402 2.5-30.208-3.25-4.986-24.42-4.434-29.19-1.863m37.75 0.059c-5.62 3.135-5.69 25.983-1.81 30.553 3.71 4.378 23.93 4.062 28.75 1.377 5.64-3.146 5.6-25.547 2.01-30.317-3.54-4.7-24.11-4.307-28.95-1.613m37.94-0.141c-6.48 2.846-6.96 25.041-3.06 30.241 3.77 5.015 23.84 4.364 29.24 2.207 6.55-2.613 6.59-25.56 2.83-30.558-3.78-5.021-23.67-4.235-29.01-1.89m37.31 0.082c-5.93 3.192-5.95 25.34-2.26 30.24 3.79 5.037 24.69 4.409 29.81 1.486 5.6-3.198 5.99-25.022 2.07-29.728-4.1-4.919-24.28-4.876-29.62-1.998m226.74 0.059c-6.74 3.681-6.26 25.298-1.8 30.553 3.71 4.378 23.93 4.062 28.75 1.377 5.64-3.146 5.6-25.547 2.01-30.317-3.56-4.731-24.08-4.274-28.96-1.613m37.01 0c-5.6 3.122-5.61 25.376-2.12 30.181 3.55 4.882 25.09 4.519 30.06 1.749 5.64-3.143 5.6-25.414 2.01-30.181-3.66-4.864-24.92-4.551-29.95-1.749m38 0c-5.6 3.122-5.61 25.376-2.12 30.181 3.51 4.829 24.09 4.453 29.06 1.831 5.67-2.997 5.56-25.69 2.01-30.399-3.54-4.7-24.11-4.307-28.95-1.613m38.25-0.059c-5.93 3.192-5.95 25.34-2.26 30.24 3.62 4.804 23.99 4.51 28.95 1.749 5.64-3.143 5.6-25.414 2.01-30.181-3.61-4.791-23.73-4.488-28.7-1.808m37.75 0.059c-5.62 3.135-5.69 25.983-1.81 30.553 3.71 4.378 23.93 4.062 28.75 1.377 5.64-3.146 5.6-25.547 2.01-30.317-3.54-4.7-24.11-4.307-28.95-1.613m37.25-0.059c-5.93 3.192-5.95 25.34-2.26 30.24 3.79 5.037 24.69 4.409 29.81 1.486 5.6-3.198 5.99-25.022 2.07-29.728-4.1-4.919-24.28-4.876-29.62-1.998m37.75 0.059c-5.6 3.122-5.61 25.376-2.12 30.181 3.51 4.829 24.09 4.453 29.06 1.831 5.67-2.997 5.56-25.69 2.01-30.399-3.54-4.7-24.11-4.307-28.95-1.613m38.25-0.059c-5.93 3.195-5.95 25.472-2.26 30.376 3.54 4.7 24.11 4.307 28.95 1.613 5.64-3.143 5.6-25.414 2.01-30.181-3.61-4.791-23.73-4.488-28.7-1.808m51.22 33.024v-34c-4.98 0-11.8-1.211-15.78 2.479-4.22 3.907-4.23 25.662 0.19 29.414 3.91 3.321 10.83 2.107 15.59 2.107m-1074-31c0 7.057-2.758 21.433 1.15 27.466 3.589 5.543 27.219 5.95 31.743 1.427 3.575-3.576 2.107-11.307 2.107-15.893 0-3.375 1.284-10.304-1.717-12.715-5.305-4.261-26.196-0.285-33.283-0.285z"/><path fill="#8c8c8c" d="m879 932 1 1-1-1m6.667 0.333c-0.445 0.445 0.611 0.389 0.666 0.334 0.445-0.445-0.611-0.389-0.666-0.334z"/><path fill="#cfcfcf" d="m918 932c-8.08 1.823-26.183-3.385-32.283 1.412-2.858 2.249-1.717 8.418-1.717 11.588 0 4.777-1.61 13.175 2.107 16.893 4.255 4.254 27.767 4.323 30.858-1.299 3.758-6.835 1.035-20.895 1.035-28.594z"/><path fill="#8c8c8c" d="m923 932 1 1-1-1z"/><path fill="#cfcfcf" d="m924.41 932.84c-4.574 2.437-3.821 24.489-1 28.371 3.505 4.823 24.157 4.478 29.054 1.749 5.162-2.876 5.91-24.87 2.384-29.248-3.109-3.86-26.193-3.134-30.438-0.872m110.59 0.155c0 7.4-2.62 20.91 1.03 27.466 3.19 5.713 27.62 5.976 31.45 0.886 4.42-5.872 1.52-21.225 1.52-28.352h-34m38 0c0 7.108-2.89 22.304 1.41 28.216 3.78 5.201 28.34 5.028 31.56-0.75 3.65-6.556 1.03-20.066 1.03-27.466h-34m-1071.3 36.15c-3.2737 2.636-1.7173 11.131-1.7173 14.85 0 4.286-1.5756 12.731 1.285 16.28 3.1087 3.86 24.155 3.04 27.931 0.2 4.0713-3.067 2.7836-10.052 2.7836-14.48 0-4.361 1.3559-11.714-1.285-15.479-2.9474-4.202-25.11-4.502-28.998-1.371m36.689-0.115c-5.5521 3.053-5.3924 25.524-1.8852 30.181 3.6219 4.814 23.926 4.484 28.945 1.834 5.5802-2.952 5.5968-25.756 2.2486-30.529-3.2644-4.654-24.652-4.046-29.309-1.486m38 0c-5.5521 3.053-5.3924 25.524-1.8852 30.181 3.6168 4.804 23.991 4.514 28.945 1.754 5.484-3.061 5.932-26.883 1.689-31.125-3.867-3.868-24.12-3.355-28.749-0.81m38 0c-5.557 3.055-5.394 25.657-1.885 30.317 3.539 4.698 24.111 4.308 28.945 1.618 5.602-3.127 5.614-25.381 2.122-30.186-3.524-4.849-24.252-4.459-29.182-1.749m37.373-0.059c-5.926 3.192-5.948 25.34-2.258 30.24 3.662 4.864 24.917 4.554 29.945 1.754 5.484-3.061 5.932-26.883 1.689-31.125-3.892-3.892-24.68-3.4-29.376-0.869m37.627 0.059c-5.552 3.053-5.392 25.524-1.885 30.181 3.622 4.814 23.926 4.484 28.945 1.834 5.581-2.952 5.597-25.756 2.249-30.529-3.264-4.654-24.652-4.046-29.309-1.486m38 0c-5.552 3.053-5.392 25.524-1.885 30.181 3.617 4.804 23.991 4.514 28.945 1.754 5.484-3.061 5.932-26.883 1.689-31.125-3.867-3.868-24.12-3.355-28.749-0.81m38 0c-5.557 3.055-5.394 25.657-1.885 30.317 3.539 4.698 24.111 4.308 28.945 1.618 5.602-3.127 5.614-25.381 2.122-30.186-3.524-4.849-24.252-4.459-29.182-1.749m37.373-0.059c-5.926 3.192-5.948 25.34-2.258 30.24 3.793 5.034 24.69 4.404 29.81 1.484 5.482-3.127 6.257-26.448 1.824-30.747-4.068-3.945-24.549-3.578-29.376-0.977m37.627 0.059c-5.552 3.053-5.392 25.524-1.885 30.181 3.622 4.814 23.926 4.484 28.945 1.834 5.581-2.952 5.597-25.756 2.249-30.529-3.264-4.654-24.652-4.046-29.309-1.486m38 0c-5.557 3.055-5.394 25.657-1.885 30.317 3.539 4.698 24.111 4.308 28.945 1.618 5.484-3.061 5.932-26.883 1.689-31.125-3.867-3.868-24.12-3.355-28.749-0.81m37.941-0.059c-6.376 2.935-6.608 23.957-3.257 29.353 3.583 5.771 24.974 5.651 30.376 2.641 5.616-3.134 5.827-26.517 1.554-30.863-4.178-4.25-23.505-3.511-28.673-1.131m37.432 0c-5.926 3.192-5.948 25.34-2.258 30.24 3.793 5.034 24.69 4.404 29.81 1.484 5.482-3.127 6.257-26.448 1.824-30.747-4.068-3.945-24.549-3.578-29.376-0.977m37.627 0.059c-5.552 3.053-5.392 25.524-1.885 30.181 3.622 4.814 23.926 4.484 28.945 1.834 5.581-2.952 5.597-25.756 2.249-30.529-3.264-4.654-24.652-4.046-29.309-1.486m38 0c-5.557 3.055-5.394 25.657-1.885 30.317 3.539 4.698 24.111 4.308 28.945 1.618 5.484-3.061 5.932-26.883 1.689-31.125-3.867-3.868-24.12-3.355-28.749-0.81m37.832-0.25c-6.346 2.555-6.581 25.504-2.635 30.241 4.197 5.044 23.353 4.584 29.05 2.314 6.511-2.595 6.599-25.515 2.935-30.556-3.685-5.071-23.975-4.162-29.35-1.999m37.541 0.191c-5.926 3.192-5.948 25.34-2.258 30.24 3.622 4.814 23.926 4.484 28.945 1.834 5.581-2.952 5.597-25.756 2.249-30.529-3.236-4.614-24.291-4.048-28.936-1.545m37.627 0.059c-5.552 3.053-5.392 25.524-1.885 30.181 3.617 4.804 23.991 4.514 28.945 1.754 5.484-3.061 5.932-26.883 1.689-31.125-3.867-3.868-24.12-3.355-28.749-0.81m38 0c-5.557 3.056-5.394 25.657-1.885 30.317 3.539 4.698 24.111 4.308 28.945 1.618 5.484-3.061 5.932-26.883 1.689-31.125-3.867-3.868-24.12-3.355-28.749-0.81m37 0c-5.552 3.053-5.392 25.524-1.885 30.181 3.662 4.864 24.917 4.554 29.945 1.754 5.602-3.127 5.614-25.381 2.122-30.186-3.567-4.908-25.178-4.5-30.182-1.749m38.373-0.059c-5.926 3.192-5.948 25.34-2.258 30.24 3.622 4.814 23.926 4.484 28.945 1.834 5.581-2.952 5.597-25.756 2.249-30.529-3.236-4.614-24.291-4.048-28.936-1.545m37.627 0.059c-5.552 3.053-5.392 25.524-1.885 30.181 3.617 4.804 23.991 4.514 28.945 1.754 5.484-3.061 5.932-26.883 1.689-31.125-3.867-3.868-24.12-3.355-28.749-0.81m38 0c-5.557 3.056-5.394 25.657-1.885 30.317 3.539 4.698 24.111 4.308 28.945 1.618 5.484-3.061 5.932-26.883 1.689-31.125-3.867-3.868-24.12-3.355-28.749-0.81m37 0c-5.552 3.053-5.392 25.524-1.885 30.181 3.793 5.034 24.69 4.404 29.81 1.484 5.613-3.202 5.929-24.942 2.257-29.835-3.716-4.95-25.09-4.63-30.182-1.83m38.373-0.059c-5.926 3.192-5.948 25.34-2.258 30.24 3.622 4.814 23.926 4.484 28.945 1.834 5.581-2.952 5.597-25.756 2.249-30.529-3.236-4.614-24.291-4.048-28.936-1.545m37.627 0.059c-5.557 3.056-5.394 25.657-1.885 30.317 3.539 4.698 24.111 4.308 28.945 1.618 5.484-3.061 5.932-26.883 1.689-31.125-3.867-3.868-24.12-3.355-28.749-0.81m37.941-0.059c-6.376 2.935-6.608 23.957-3.257 29.353 3.583 5.771 24.97 5.651 30.38 2.641 5.48-3.061 5.93-26.883 1.69-31.125-4.05-4.047-23.851-3.154-28.813-0.869m37.063 0.059c-5.56 3.053-5.4 25.524-1.89 30.181 3.79 5.034 24.69 4.404 29.81 1.484 5.61-3.202 5.93-24.942 2.26-29.835-3.72-4.95-25.09-4.63-30.18-1.83m38 0c-5.56 3.053-5.4 25.524-1.89 30.181 3.62 4.814 23.93 4.484 28.95 1.834 5.58-2.952 5.59-25.756 2.24-30.529-3.26-4.654-24.65-4.046-29.3-1.486m38 0c-5.56 3.055-5.4 25.657-1.89 30.317 3.54 4.698 24.11 4.308 28.95 1.618 5.6-3.127 5.61-25.381 2.12-30.186-3.53-4.849-24.25-4.459-29.18-1.749m37.37-0.059c-5.93 3.192-5.95 25.34-2.26 30.24 3.66 4.864 24.92 4.554 29.95 1.754 5.48-3.061 5.93-26.883 1.69-31.125-3.9-3.892-24.68-3.4-29.38-0.869m37.63 0.059c-5.56 3.053-5.4 25.524-1.89 30.181 3.62 4.814 23.93 4.484 28.95 1.834 5.58-2.952 5.59-25.756 2.24-30.529-3.26-4.654-24.65-4.046-29.3-1.486m37.94-0.059c-6.38 2.935-6.61 23.957-3.26 29.353 3.58 5.771 24.97 5.651 30.38 2.641 5.48-3.061 5.93-26.883 1.69-31.125-4.05-4.047-23.85-3.154-28.81-0.869m37.06 0.059c-5.56 3.053-5.4 25.524-1.89 30.181 3.62 4.814 23.93 4.484 28.95 1.834 5.58-2.952 5.59-25.756 2.24-30.529-3.26-4.654-24.65-4.046-29.3-1.486m38 0c-5.56 3.053-5.4 25.524-1.89 30.181 3.62 4.804 23.99 4.514 28.95 1.754 5.48-3.061 5.93-26.883 1.69-31.125-3.87-3.868-24.12-3.355-28.75-0.81m38 0c-5.56 3.056-5.4 25.657-1.89 30.317 3.54 4.698 24.11 4.308 28.95 1.618 5.6-3.127 5.61-25.381 2.12-30.186-3.53-4.849-24.25-4.459-29.18-1.749m37.37-0.059c-5.93 3.192-5.95 25.34-2.26 30.24 3.66 4.864 24.92 4.554 29.95 1.754 5.48-3.061 5.93-26.883 1.69-31.125-3.9-3.892-24.68-3.399-29.38-0.869m37.63 0.059c-5.56 3.053-5.4 25.524-1.89 30.181 3.62 4.814 23.93 4.484 28.95 1.834 5.58-2.952 5.59-25.756 2.24-30.529-3.26-4.654-24.65-4.046-29.3-1.486m38 0c-5.56 3.053-5.4 25.524-1.89 30.181 3.62 4.804 23.99 4.514 28.95 1.754 5.48-3.061 5.93-26.883 1.69-31.125-3.87-3.868-24.12-3.355-28.75-0.81m38 0c-5.56 3.056-5.4 25.657-1.89 30.317 3.54 4.698 24.11 4.308 28.95 1.618 5.6-3.127 5.61-25.381 2.12-30.186-3.53-4.849-24.25-4.459-29.18-1.749m37.37-0.059c-5.93 3.192-5.95 25.34-2.26 30.24 3.79 5.034 24.69 4.414 29.81 1.484 5.48-3.127 6.26-26.448 1.83-30.747-4.07-3.945-24.55-3.578-29.38-0.977m37.63 0.059c-5.56 3.053-5.4 25.524-1.89 30.181 3.62 4.814 23.93 4.484 28.95 1.834 5.58-2.952 5.59-25.756 2.24-30.529-3.26-4.654-24.65-4.046-29.3-1.486m38 0c-5.56 3.056-5.4 25.657-1.89 30.317 3.54 4.698 24.11 4.308 28.95 1.618 5.48-3.061 5.93-26.883 1.69-31.125-3.87-3.868-24.12-3.355-28.75-0.81m37.94-0.059c-6.38 2.935-6.61 23.957-3.26 29.353 3.58 5.771 24.97 5.651 30.38 2.641 5.61-3.134 5.82-26.517 1.55-30.863-4.18-4.25-23.5-3.511-28.67-1.131m37.43 0c-5.93 3.192-5.95 25.34-2.26 30.24 3.79 5.034 24.69 4.414 29.81 1.484 5.48-3.127 6.26-26.448 1.83-30.747-4.07-3.945-24.55-3.578-29.38-0.977m37.63 0.059c-5.56 3.053-5.4 25.524-1.89 30.181 3.62 4.814 23.93 4.484 28.95 1.834 5.58-2.952 5.59-25.756 2.24-30.529-3.26-4.654-24.65-4.046-29.3-1.486m38 0c-5.56 3.055-5.4 25.657-1.89 30.317 3.54 4.698 24.11 4.308 28.95 1.618 5.48-3.061 5.93-26.883 1.69-31.125-3.87-3.868-24.12-3.355-28.75-0.81m37.83-0.25c-6.35 2.555-6.58 25.503-2.64 30.241 4.2 5.044 23.36 4.584 29.05 2.314 6.51-2.595 6.6-25.515 2.94-30.556-3.69-5.071-23.98-4.162-29.35-1.999m37.54 0.191c-5.93 3.192-5.95 25.34-2.26 30.24 3.62 4.814 23.93 4.484 28.95 1.834 5.58-2.952 5.59-25.756 2.24-30.529-3.23-4.614-24.29-4.048-28.93-1.545m37.63 0.059c-5.56 3.053-5.4 25.524-1.89 30.181 3.62 4.804 23.99 4.514 28.95 1.754 5.48-3.061 5.93-26.883 1.69-31.125-3.87-3.868-24.12-3.355-28.75-0.81m38 0c-5.56 3.056-5.4 25.657-1.89 30.317 3.54 4.698 24.11 4.308 28.95 1.618 5.48-3.061 5.93-26.883 1.69-31.125-3.87-3.868-24.12-3.355-28.75-0.81m-1887.4 35.965v35c19.15-0.01 19.374-34.99 0-35m19.779 0.98c-5.5522 2.99-3.7792 11.85-3.7792 17.02 0 4.62-1.0971 11.07 2.3432 14.78 3.7986 4.11 24.347 4.01 28.986 1.13 5.7636-3.58 6.1068-27.26 1.5632-31.8-4.0743-4.08-24.189-3.79-29.114-1.13m38 0c-5.5522 2.99-3.7792 11.85-3.7792 17.02 0 4.41-0.9745 10.3 1.7836 14.09 3.5458 4.87 23.596 4.69 28.628 1.96 5.554-3.02 5.7382-26.31 2.5539-31.21-3.242-4.99-24.414-4.44-29.186-1.86m37.754 0.05c-5.2942 2.96-3.5336 11.96-3.5336 16.97 0 4.32-1.0841 10.65 1.6483 14.35 3.392 4.6 24.083 4.42 28.681 1.56 5.734-3.56 5.913-26.26 2.15-31.26-3.539-4.7-24.111-4.31-28.945-1.62m37.94-0.14c-6.804 2.99-6.83 25.76-2.609 31.01 4.051 5.03 23.112 4.88 28.701 2.41 6.631-2.93 6.763-26.41 2.913-31.53-3.78-5.02-23.664-4.23-29.005-1.89m37.305 0.09c-6.33 3.41-5.906 26.98-1.436 31.8 3.934 4.25 23.092 3.72 28.095 1.29 6.527-3.16 7.225-25.97 2.959-31.1-4.097-4.92-24.276-4.87-29.618-1.99m38 0c-5.552 2.99-3.779 11.85-3.779 17.02 0 4.41-0.975 10.3 1.784 14.09 3.545 4.87 23.596 4.69 28.627 1.96 5.554-3.02 5.738-26.31 2.554-31.21-3.242-4.99-24.414-4.44-29.186-1.86m37.755 0.05c-5.295 2.96-3.534 11.96-3.534 16.97 0 4.32-1.084 10.65 1.648 14.35 3.392 4.6 24.083 4.42 28.681 1.56 5.734-3.56 5.913-26.26 2.15-31.26-3.539-4.7-24.111-4.31-28.945-1.62m37.94-0.14c-6.804 2.99-6.83 25.76-2.609 31.01 4.051 5.03 23.112 4.88 28.701 2.41 6.631-2.93 6.763-26.41 2.913-31.53-3.78-5.02-23.664-4.23-29.005-1.89m37.06 0.14c-5.295 2.96-3.534 11.96-3.534 16.97 0 4.41-0.975 10.3 1.784 14.09 3.545 4.87 23.596 4.69 28.627 1.96 5.748-3.13 5.678-26.61 2.068-31.4-3.539-4.7-24.111-4.31-28.945-1.62m38.245-0.05c-5.552 2.99-3.779 11.85-3.779 17.02 0 4.41-0.975 10.3 1.784 14.09 3.485 4.79 23.73 4.81 28.545 1.82 5.729-3.56 5.911-26.13 2.15-31.13-3.607-4.79-23.725-4.48-28.7-1.8m37.755 0.05c-5.295 2.96-3.534 11.96-3.534 16.97 0 4.32-1.084 10.65 1.648 14.35 3.392 4.6 24.083 4.42 28.681 1.56 5.734-3.56 5.913-26.26 2.15-31.26-3.539-4.7-24.111-4.31-28.945-1.62m37 0c-5.295 2.96-3.534 11.96-3.534 16.97 0 4.62-1.097 11.07 2.343 14.78 3.799 4.11 24.347 4.01 28.986 1.13 5.764-3.58 6.107-27.26 1.564-31.8-4.086-4.09-24.455-3.81-29.359-1.08m38 0c-5.295 2.96-3.534 11.96-3.534 16.97 0 4.41-0.975 10.3 1.784 14.09 3.545 4.87 23.596 4.69 28.627 1.96 5.748-3.13 5.678-26.61 2.068-31.4-3.539-4.7-24.111-4.31-28.945-1.62m38.245-0.05c-5.552 2.99-3.779 11.85-3.779 17.02 0 4.41-0.975 10.3 1.784 14.09 3.485 4.79 23.73 4.81 28.545 1.82 5.729-3.56 5.911-26.13 2.15-31.13-3.607-4.79-23.726-4.48-28.7-1.8m37.755 0.05c-5.295 2.96-3.534 11.96-3.534 16.97 0 4.32-1.084 10.65 1.648 14.35 3.392 4.6 24.083 4.42 28.681 1.56 5.734-3.56 5.913-26.26 2.15-31.26-3.539-4.7-24.111-4.31-28.945-1.62m37.245-0.05c-6.331 3.41-5.906 26.98-1.436 31.8 3.934 4.25 23.092 3.72 28.095 1.29 6.527-3.16 7.225-25.97 2.959-31.1-4.097-4.92-24.276-4.87-29.618-1.99m37.755 0.05c-5.295 2.96-3.534 11.96-3.534 16.97 0 4.41-0.974 10.3 1.784 14.09 3.545 4.87 23.596 4.69 28.627 1.96 5.748-3.13 5.678-26.61 2.068-31.4-3.539-4.7-24.111-4.31-28.945-1.62m38.245-0.05c-5.552 2.99-3.779 11.85-3.779 17.02 0 4.32-1.084 10.65 1.648 14.35 3.392 4.6 24.083 4.42 28.681 1.56 5.729-3.56 5.911-26.13 2.15-31.13-3.607-4.79-23.726-4.48-28.7-1.8m37.695 0c-6.762 3.15-6.89 25.6-2.609 30.92 4.051 5.03 23.112 4.88 28.701 2.41 6.637-2.93 6.766-26.54 2.913-31.66-3.69-4.9-23.855-4.08-29.005-1.67m37.305 0c-6.331 3.41-5.906 26.98-1.436 31.8 3.934 4.25 23.092 3.72 28.095 1.29 6.533-3.17 7.228-26.11 2.959-31.23-4.017-4.83-24.403-4.67-29.618-1.86m37.755 0.05c-5.295 2.96-3.534 11.96-3.534 16.97 0 4.41-0.974 10.3 1.784 14.09 3.545 4.87 23.596 4.69 28.627 1.96 5.748-3.13 5.678-26.61 2.068-31.4-3.539-4.7-24.111-4.31-28.945-1.62m38-0.08c-5.327 2.82-3.534 12.11-3.534 17.05 0 4.32-1.084 10.65 1.648 14.35 3.392 4.6 24.083 4.42 28.681 1.56 5.764-3.58 6.107-27.26 1.564-31.8-4.031-4.03-23.471-3.74-28.359-1.16m37.94 0.03c-6.762 3.15-6.89 25.6-2.609 30.92 4.051 5.03 23.112 4.88 28.701 2.41 6.631-2.93 6.763-26.41 2.913-31.53-3.772-5.01-23.73-4.26-29.005-1.8m37.305 0c-5.552 2.99-3.779 11.85-3.779 17.02 0 4.41-0.974 10.3 1.784 14.09 3.545 4.87 23.596 4.69 28.627 1.96 5.554-3.02 5.738-26.31 2.554-31.21-3.242-4.99-24.414-4.44-29.186-1.86m37.755 0.05c-5.295 2.96-3.534 11.96-3.534 16.97 0 4.41-0.974 10.3 1.784 14.09 3.485 4.79 23.73 4.81 28.545 1.82 5.734-3.56 5.913-26.26 2.15-31.26-3.539-4.7-24.111-4.31-28.945-1.62m38-0.08c-5.327 2.82-3.534 12.11-3.534 17.05 0 4.32-1.084 10.65 1.648 14.35 3.392 4.6 24.083 4.42 28.681 1.56 5.764-3.58 6.107-27.26 1.564-31.8-4.031-4.03-23.471-3.74-28.359-1.16m37.246 0.03c-5.553 2.99-3.78 11.85-3.78 17.02 0 4.62-1.097 11.07 2.343 14.78 3.797 4.11 24.347 4.01 28.987 1.13 5.76-3.58 6.11-27.26 1.56-31.8-4.07-4.08-24.19-3.79-29.11-1.13m38 0c-5.55 2.99-3.78 11.85-3.78 17.02 0 4.41-0.97 10.3 1.78 14.09 3.55 4.87 23.6 4.69 28.63 1.96 5.56-3.02 5.74-26.31 2.56-31.21-3.25-4.99-24.42-4.44-29.19-1.86m37.75 0.05c-5.29 2.96-3.53 11.96-3.53 16.97 0 4.41-0.97 10.3 1.78 14.09 3.49 4.79 23.73 4.81 28.55 1.82 5.73-3.56 5.91-26.26 2.15-31.26-3.54-4.7-24.11-4.31-28.95-1.62m38-0.08c-5.32 2.82-3.53 12.11-3.53 17.05 0 4.32-1.08 10.65 1.65 14.35 3.39 4.6 24.08 4.42 28.68 1.56 5.76-3.58 6.11-27.26 1.56-31.8-4.03-4.03-23.47-3.74-28.36-1.16m37.25 0.03c-6.33 3.41-5.91 26.98-1.44 31.8 3.94 4.25 23.09 3.72 28.1 1.29 6.53-3.16 7.22-25.97 2.96-31.1-4.1-4.92-24.28-4.87-29.62-1.99m37.75-0.03c-5.32 2.82-3.53 12.11-3.53 17.05 0 4.32-1.08 10.65 1.65 14.35 3.39 4.6 24.08 4.42 28.68 1.56 5.76-3.58 6.11-27.26 1.56-31.8-4.03-4.03-23.47-3.74-28.36-1.16m37.25 0.03c-5.55 2.99-3.78 11.85-3.78 17.02 0 4.62-1.1 11.07 2.34 14.78 3.8 4.11 24.35 4.01 28.99 1.13 5.76-3.58 6.11-27.26 1.56-31.8-4.07-4.08-24.19-3.79-29.11-1.13m38 0c-5.55 2.99-3.78 11.85-3.78 17.02 0 4.41-0.97 10.3 1.78 14.09 3.55 4.87 23.6 4.69 28.63 1.96 5.56-3.02 5.74-26.31 2.56-31.21-3.25-4.99-24.42-4.44-29.19-1.86m37.75 0.05c-5.29 2.96-3.53 11.96-3.53 16.97 0 4.32-1.08 10.65 1.65 14.35 3.39 4.6 24.08 4.42 28.68 1.56 5.73-3.56 5.91-26.26 2.15-31.26-3.54-4.7-24.11-4.31-28.95-1.62m37.94-0.14c-6.8 2.99-6.83 25.76-2.6 31.01 4.05 5.03 23.11 4.88 28.7 2.41 6.63-2.93 6.76-26.41 2.91-31.53-3.78-5.02-23.67-4.23-29.01-1.89m37.31 0.09c-6.33 3.41-5.91 26.98-1.44 31.8 3.94 4.25 23.09 3.72 28.1 1.29 6.53-3.16 7.22-25.97 2.96-31.1-4.1-4.92-24.28-4.87-29.62-1.99m38 0c-5.55 2.99-3.78 11.85-3.78 17.02 0 4.41-0.97 10.3 1.78 14.09 3.55 4.87 23.6 4.69 28.63 1.96 5.56-3.02 5.74-26.31 2.56-31.21-3.25-4.99-24.42-4.44-29.19-1.86m37.75 0.05c-5.29 2.96-3.53 11.96-3.53 16.97 0 4.32-1.08 10.65 1.65 14.35 3.39 4.6 24.08 4.42 28.68 1.56 5.73-3.56 5.91-26.26 2.15-31.26-3.54-4.7-24.11-4.31-28.95-1.62m37.94-0.14c-6.8 2.99-6.83 25.76-2.6 31.01 4.05 5.03 23.11 4.88 28.7 2.41 6.63-2.93 6.76-26.41 2.91-31.53-3.78-5.02-23.67-4.23-29.01-1.89m37.06 0.14c-5.29 2.96-3.53 11.96-3.53 16.97 0 4.41-0.97 10.3 1.78 14.09 3.55 4.87 23.6 4.69 28.63 1.96 5.75-3.13 5.68-26.61 2.07-31.4-3.54-4.7-24.11-4.31-28.95-1.62m38.25-0.05c-5.55 2.99-3.78 11.85-3.78 17.02 0 4.41-0.97 10.3 1.78 14.09 3.49 4.79 23.73 4.81 28.55 1.82 5.73-3.56 5.91-26.13 2.15-31.13-3.61-4.79-23.73-4.48-28.7-1.8m37.75 0.05c-5.29 2.96-3.53 11.96-3.53 16.97 0 4.32-1.08 10.65 1.65 14.35 3.39 4.6 24.08 4.42 28.68 1.56 5.73-3.56 5.91-26.26 2.15-31.26-3.54-4.7-24.11-4.31-28.95-1.62m37 0c-5.29 2.96-3.53 11.96-3.53 16.97 0 4.62-1.1 11.07 2.34 14.78 3.8 4.11 24.35 4.01 28.99 1.13 5.76-3.58 6.11-27.26 1.56-31.8-4.08-4.09-24.45-3.81-29.36-1.08m38 0c-5.29 2.96-3.53 11.96-3.53 16.97 0 4.41-0.97 10.3 1.78 14.09 3.55 4.87 23.6 4.69 28.63 1.96 5.75-3.13 5.68-26.61 2.07-31.4-3.54-4.7-24.11-4.31-28.95-1.62m38.25-0.05c-5.55 2.99-3.78 11.85-3.78 17.02 0 4.41-0.97 10.3 1.78 14.09 3.49 4.79 23.73 4.81 28.55 1.82 5.73-3.56 5.91-26.13 2.15-31.13-3.61-4.79-23.73-4.48-28.7-1.8m37.75 0.05c-5.29 2.96-3.53 11.96-3.53 16.97 0 4.32-1.08 10.65 1.65 14.35 3.39 4.6 24.08 4.42 28.68 1.56 5.73-3.56 5.91-26.26 2.15-31.26-3.54-4.7-24.11-4.31-28.95-1.62m37.25-0.05c-6.33 3.41-5.91 26.98-1.44 31.8 3.94 4.25 23.09 3.72 28.1 1.29 6.53-3.16 7.22-25.97 2.96-31.1-4.1-4.92-24.28-4.87-29.62-1.99m37.75 0.05c-5.29 2.96-3.53 11.96-3.53 16.97 0 4.41-0.97 10.3 1.78 14.09 3.55 4.87 23.6 4.69 28.63 1.96 5.75-3.13 5.68-26.61 2.07-31.4-3.54-4.7-24.11-4.31-28.95-1.62m38.25-0.05c-5.55 2.99-3.78 11.85-3.78 17.02 0 4.32-1.08 10.65 1.65 14.35 3.39 4.6 24.08 4.42 28.68 1.56 5.73-3.56 5.91-26.13 2.15-31.13-3.61-4.79-23.73-4.48-28.7-1.8m51.22 34.02v-35c-4.98 0-11.8-1.21-15.78 2.48-4.67 4.32-4.1 26.65 0.88 30.65 3.8 3.06 10.35 1.87 14.9 1.87m-1918.2 4.15c-3.2105 2.63-1.8446 10.2-1.8446 13.85 0 4.29-1.5756 12.73 1.285 16.28 3.0963 3.85 25.097 3.15 28.741 0.12 4.192-3.49 3.1151-10.65 2.5415-15.4-0.4803-3.97 0.4233-10.02-2.0886-13.35-3.183-4.23-24.624-4.79-28.634-1.5m36.689-0.11c-6.1744 3.44-4.4344 25.16-0.1904 29.74 3.8129 4.12 23.284 3.87 28.068 1.27 5.9787-3.25 4.6397-24.66 1.0679-29.4-3.5394-4.7-24.111-4.31-28.945-1.61m38 0c-5.8051 3.23-3.2135 12.72-2.73 17.96 0.3555 3.85-0.5801 8.99 2.4123 12.02 3.79 3.84 23.656 3.66 28.113 0.89 5.904-3.67 5.067-25.5 0.564-29.93-3.991-3.92-23.625-3.58-28.359-0.94m38 0c-5.117 2.85-3.534 11.11-3.534 15.96 0 4.09-0.884 9.48 1.865 12.9 3.949 4.91 24.31 5.21 29.464 2.01 5.933-3.68 5.042-25.32 0.564-29.8-4.024-4.03-23.538-3.76-28.359-1.07m37.245-0.06c-6.458 3.48-4.79 25.1-0.436 29.8 3.934 4.25 23.092 3.72 28.095 1.29 6.9-3.34 6.049-24.1 2.041-29.42-3.574-4.75-24.771-4.33-29.7-1.67m37.755 0.06c-6.175 3.44-4.435 25.16-0.191 29.74 3.813 4.12 23.284 3.87 28.068 1.27 5.979-3.25 4.64-24.66 1.068-29.4-3.539-4.7-24.111-4.31-28.945-1.61m38 0c-5.805 3.23-3.214 12.72-2.73 17.96 0.355 3.85-0.58 8.99 2.412 12.02 3.79 3.84 23.656 3.66 28.113 0.89 5.904-3.67 5.067-25.5 0.564-29.93-3.991-3.92-23.625-3.58-28.359-0.94m38 0c-5.117 2.85-3.534 11.11-3.534 15.96 0 4.09-0.884 9.48 1.865 12.9 3.949 4.91 24.31 5.21 29.464 2.01 5.933-3.68 5.042-25.32 0.564-29.8-4.024-4.03-23.538-3.76-28.359-1.07m37.245-0.06c-6.458 3.48-4.79 25.1-0.436 29.8 3.813 4.12 23.284 3.87 28.068 1.27 5.545-3.02 5.711-24.74 1.986-29.21-4.017-4.83-24.403-4.67-29.618-1.86m37.755 0.06c-5.805 3.23-3.214 12.72-2.73 17.96 0.365 3.96-0.407 8.6 2.539 11.78 3.745 4.05 23.42 3.97 27.986 1.13 5.904-3.67 5.067-25.5 0.564-29.93-3.991-3.92-23.625-3.58-28.359-0.94m38 0c-5.806 3.23-3.214 12.72-2.73 17.96 0.355 3.85-0.58 8.99 2.412 12.02 3.79 3.84 23.656 3.66 28.113 0.89 5.904-3.67 5.067-25.5 0.564-29.93-3.991-3.92-23.625-3.58-28.359-0.94m37.94-0.06c-7.094 3.3-5.824 24.74-1.131 29.8 3.878 4.19 23.184 3.76 28.223 1.53 6.903-3.05 5.726-24.46 1.913-29.53-3.772-5.01-23.73-4.26-29.005-1.8m37.305 0c-6.458 3.48-4.79 25.1-0.436 29.8 3.813 4.12 23.284 3.87 28.068 1.27 5.545-3.02 5.711-24.74 1.986-29.21-4.017-4.83-24.403-4.67-29.618-1.86m37.755 0.06c-5.805 3.23-3.214 12.72-2.73 17.96 0.365 3.96-0.407 8.6 2.539 11.78 3.745 4.05 23.42 3.97 27.986 1.13 5.904-3.67 5.067-25.5 0.564-29.93-3.991-3.92-23.625-3.58-28.359-0.94m38 0c-5.806 3.23-3.214 12.72-2.73 17.96 0.355 3.85-0.581 8.99 2.412 12.02 3.79 3.84 23.656 3.66 28.113 0.89 5.904-3.67 5.067-25.5 0.564-29.93-3.991-3.92-23.625-3.58-28.359-0.94m37.94-0.15c-7.125 3.13-5.603 23.82-1.69 29.2 3.65 5.02 23.413 4.53 28.654 1.98 6.881-3.33 6.261-25.16 1.455-29.96-4.224-4.23-23.183-3.52-28.419-1.22m37.305 0.09c-6.458 3.48-4.79 25.1-0.436 29.8 3.813 4.12 23.284 3.87 28.068 1.27 5.979-3.25 4.64-24.66 1.068-29.4-3.529-4.69-23.846-4.29-28.7-1.67m37.755 0.06c-5.806 3.23-3.214 12.72-2.73 17.96 0.355 3.85-0.58 8.99 2.412 12.02 3.79 3.84 23.656 3.66 28.113 0.89 5.904-3.67 5.067-25.5 0.564-29.93-3.991-3.92-23.625-3.58-28.359-0.94m38 0c-5.117 2.85-3.534 11.11-3.534 15.96 0 4.09-0.884 9.48 1.865 12.9 3.949 4.91 24.31 5.21 29.464 2.01 5.904-3.67 5.067-25.5 0.564-29.93-3.991-3.92-23.625-3.58-28.359-0.94m37 0c-5.805 3.23-3.214 12.72-2.73 17.96 0.365 3.96-0.407 8.6 2.539 11.78 3.947 4.27 24.107 3.88 28.851 0.87 5.959-3.79 5.327-24.91 0.699-29.54-4.086-4.09-24.455-3.81-29.359-1.07m38.245-0.06c-6.458 3.48-4.79 25.1-0.436 29.8 3.813 4.12 23.284 3.87 28.068 1.27 5.979-3.25 4.64-24.66 1.068-29.4-3.529-4.69-23.846-4.29-28.7-1.67m37.755 0.06c-5.806 3.23-3.214 12.72-2.73 17.96 0.355 3.85-0.58 8.99 2.412 12.02 3.79 3.84 23.656 3.66 28.113 0.89 5.904-3.67 5.067-25.5 0.564-29.93-3.991-3.92-23.625-3.58-28.359-0.94m38 0c-5.117 2.85-3.534 11.11-3.534 15.96 0 4.09-0.884 9.48 1.865 12.9 3.949 4.91 24.31 5.21 29.464 2.01 5.904-3.67 5.067-25.5 0.564-29.93-3.991-3.92-23.625-3.58-28.359-0.94m37 0c-6.175 3.44-4.435 25.16-0.191 29.74 3.813 4.12 23.284 3.87 28.068 1.27 5.54-3.02 5.708-24.61 1.986-29.08-4.105-4.93-24.545-4.9-29.863-1.93m38.245-0.06c-6.06 3.26-3.474 12.62-2.975 18.02 0.365 3.96-0.407 8.6 2.539 11.78 3.745 4.05 23.42 3.97 27.986 1.13 5.904-3.67 5.067-25.5 0.564-29.93-3.978-3.91-23.361-3.57-28.114-1m37.755 0.06c-5.806 3.23-3.214 12.72-2.73 17.96 0.355 3.85-0.581 8.99 2.412 12.02 3.79 3.84 23.656 3.66 28.113 0.89 5.904-3.67 5.067-25.5 0.564-29.93-3.991-3.92-23.625-3.58-28.359-0.94m37.94-0.06c-7.094 3.3-5.824 24.74-1.131 29.8 3.878 4.19 23.187 3.76 28.227 1.53 6.9-3.05 5.72-24.6 1.91-29.66-3.69-4.9-23.856-4.08-29.006-1.67m37.056 0.06c-6.17 3.44-4.43 25.16-0.19 29.74 3.82 4.12 23.29 3.87 28.07 1.27 5.54-3.02 5.71-24.61 1.99-29.08-4.11-4.93-24.55-4.9-29.87-1.93m38 0c-5.8 3.23-3.21 12.72-2.73 17.96 0.37 3.96-0.4 8.6 2.54 11.78 3.75 4.05 23.42 3.97 27.99 1.13 5.9-3.67 5.07-25.5 0.56-29.93-3.99-3.92-23.62-3.58-28.36-0.94m38 0c-5.8 3.23-3.21 12.72-2.73 17.96 0.36 3.85-0.58 8.99 2.42 12.02 3.79 3.84 23.65 3.66 28.11 0.89 5.93-3.68 5.04-25.32 0.56-29.8-4.02-4.03-23.53-3.76-28.36-1.07m37.25-0.06c-6.46 3.48-4.79 25.1-0.44 29.8 3.94 4.25 23.09 3.72 28.1 1.29 6.9-3.34 6.05-24.1 2.04-29.42-3.58-4.75-24.77-4.33-29.7-1.67m37.75 0.06c-5.8 3.23-3.21 12.72-2.73 17.96 0.36 3.85-0.58 8.99 2.42 12.02 3.79 3.84 23.65 3.66 28.11 0.89 5.9-3.67 5.07-25.5 0.56-29.93-3.99-3.92-23.62-3.58-28.36-0.94m37.94-0.06c-7.09 3.3-5.82 24.74-1.13 29.8 3.88 4.19 23.19 3.76 28.23 1.53 6.9-3.05 5.72-24.6 1.91-29.66-3.69-4.9-23.86-4.08-29.01-1.67m37.06 0.06c-6.17 3.44-4.43 25.16-0.19 29.74 3.82 4.12 23.29 3.87 28.07 1.27 5.98-3.25 4.64-24.66 1.07-29.4-3.54-4.7-24.11-4.31-28.95-1.61m38 0c-5.8 3.23-3.21 12.72-2.73 17.96 0.36 3.85-0.58 8.99 2.42 12.02 3.79 3.84 23.65 3.66 28.11 0.89 5.9-3.67 5.07-25.5 0.56-29.93-3.99-3.92-23.62-3.58-28.36-0.94m38 0c-5.11 2.85-3.53 11.11-3.53 15.96 0 4.09-0.88 9.48 1.87 12.9 3.94 4.91 24.3 5.21 29.46 2.01 5.93-3.68 5.04-25.32 0.56-29.8-4.02-4.03-23.53-3.76-28.36-1.07m37.25-0.06c-6.46 3.48-4.79 25.1-0.44 29.8 3.94 4.25 23.09 3.72 28.1 1.29 6.9-3.34 6.05-24.1 2.04-29.42-3.58-4.75-24.77-4.33-29.7-1.67m37.75 0.06c-6.17 3.44-4.43 25.16-0.19 29.74 3.82 4.12 23.29 3.87 28.07 1.27 5.98-3.25 4.64-24.66 1.07-29.4-3.54-4.7-24.11-4.31-28.95-1.61m38 0c-5.8 3.23-3.21 12.72-2.73 17.96 0.36 3.85-0.58 8.99 2.42 12.02 3.79 3.84 23.65 3.66 28.11 0.89 5.9-3.67 5.07-25.5 0.56-29.93-3.99-3.92-23.62-3.58-28.36-0.94m38 0c-5.11 2.85-3.53 11.11-3.53 15.96 0 4.09-0.88 9.48 1.87 12.9 3.94 4.91 24.3 5.21 29.46 2.01 5.93-3.68 5.04-25.32 0.56-29.8-4.02-4.03-23.53-3.76-28.36-1.07m37.25-0.06c-6.46 3.48-4.79 25.1-0.44 29.8 3.82 4.12 23.29 3.87 28.07 1.27 5.55-3.02 5.71-24.74 1.99-29.21-4.02-4.83-24.41-4.67-29.62-1.86m37.75 0.06c-5.8 3.23-3.21 12.72-2.73 17.96 0.37 3.96-0.4 8.6 2.54 11.78 3.75 4.05 23.42 3.97 27.99 1.13 5.9-3.67 5.07-25.5 0.56-29.93-3.99-3.92-23.62-3.58-28.36-0.94m38 0c-5.8 3.23-3.21 12.72-2.73 17.96 0.36 3.85-0.58 8.99 2.42 12.02 3.79 3.84 23.65 3.66 28.11 0.89 5.9-3.67 5.07-25.5 0.56-29.93-3.99-3.92-23.62-3.58-28.36-0.94m37.94-0.06c-7.09 3.3-5.82 24.74-1.13 29.8 3.88 4.19 23.19 3.76 28.23 1.53 6.9-3.05 5.72-24.46 1.91-29.53-3.77-5.01-23.73-4.26-29.01-1.8m37.31 0c-6.46 3.48-4.79 25.1-0.44 29.8 3.82 4.12 23.29 3.87 28.07 1.27 5.55-3.02 5.71-24.74 1.99-29.21-4.02-4.83-24.41-4.67-29.62-1.86m37.75 0.06c-5.8 3.23-3.21 12.72-2.73 17.96 0.37 3.96-0.4 8.6 2.54 11.78 3.75 4.05 23.42 3.97 27.99 1.13 5.9-3.67 5.07-25.5 0.56-29.93-3.99-3.92-23.62-3.58-28.36-0.94m38 0c-5.8 3.23-3.21 12.72-2.73 17.96 0.36 3.85-0.58 8.99 2.42 12.02 3.79 3.84 23.65 3.66 28.11 0.89 5.9-3.67 5.07-25.5 0.56-29.93-3.99-3.92-23.62-3.58-28.36-0.94m37.94-0.15c-7.12 3.13-5.6 23.82-1.69 29.2 3.65 5.02 23.42 4.53 28.66 1.98 6.88-3.33 6.26-25.16 1.45-29.96-4.22-4.23-23.18-3.52-28.42-1.22m37.31 0.09c-6.46 3.48-4.79 25.1-0.44 29.8 3.82 4.12 23.29 3.87 28.07 1.27 5.98-3.25 4.64-24.66 1.07-29.4-3.53-4.69-23.85-4.29-28.7-1.67m37.75 0.06c-5.8 3.23-3.21 12.72-2.73 17.96 0.36 3.85-0.58 8.99 2.42 12.02 3.79 3.84 23.65 3.66 28.11 0.89 5.9-3.67 5.07-25.5 0.56-29.93-3.99-3.92-23.62-3.58-28.36-0.94m38 0c-5.11 2.85-3.53 11.11-3.53 15.96 0 4.09-0.88 9.48 1.87 12.9 3.94 4.91 24.3 5.21 29.46 2.01 5.44-3.38 2.85-10.81 2.7-15.91-0.12-4.04 1.05-9.89-1.55-13.35-3.54-4.7-24.11-4.31-28.95-1.61m31.47 27.96v7h-12c4.08 1.53 8.68 1 13 1-0.02-2.83 0-5.34-1-8m-1919 7c3.5214 1.32 7.2669 1 11 1-3.5214-1.32-7.2669-1-11-1m20 0c8.0187 3 19.469 1 28 1-8.0187-3-19.469-1-28-1m38 0c8.0187 3 19.469 1 28 1-8.0187-3-19.469-1-28-1m38 0c8.019 3 19.469 1 28 1-8.019-3-19.469-1-28-1m37 0c8.274 3.09 20.194 1 29 1-8.274-3.09-20.194-1-29-1m38 0c8.019 3 19.469 1 28 1-8.019-3-19.469-1-28-1m38 0c8.019 3 19.469 1 28 1-8.019-3-19.469-1-28-1m38 0c8.019 3 19.469 1 28 1-8.019-3-19.469-1-28-1m37 0c8.019 3 19.469 1 28 1-8.019-3-19.469-1-28-1m38 0c8.019 3 19.469 1 28 1-8.019-3-19.469-1-28-1m38 0c8.019 3 19.469 1 28 1-8.019-3-19.469-1-28-1m38 0c8.019 3 19.469 1 28 1-8.019-3-19.469-1-28-1m37 0c8.019 3 19.469 1 28 1-8.019-3-19.469-1-28-1m38 0c8.019 3 19.469 1 28 1-8.019-3-19.469-1-28-1m38 0c8.019 3 19.469 1 28 1-8.019-3-19.469-1-28-1m38 0c8.019 3 19.469 1 28 1-8.019-3-19.469-1-28-1m37 0c8.019 3 19.469 1 28 1-8.019-3-19.469-1-28-1m38 0c8.019 3 19.469 1 28 1-8.019-3-19.469-1-28-1m38 0c8.019 3 19.469 1 28 1-8.019-3-19.469-1-28-1m37 0c8.274 3.09 20.194 1 29 1-8.274-3.09-20.194-1-29-1m38 0c8.019 3 19.469 1 28 1-8.019-3-19.469-1-28-1m38 0c8.019 3 19.469 1 28 1-8.019-3-19.469-1-28-1m38 0c8.019 3 19.469 1 28 1-8.019-3-19.469-1-28-1m37 0c8.019 3 19.469 1 28 1-8.019-3-19.469-1-28-1m38 0c8.019 3 19.469 1 28 1-8.019-3-19.469-1-28-1m38 0c8.019 3 19.469 1 28 1-8.019-3-19.469-1-28-1m38 0c8.019 3 19.469 1 28 1-8.019-3-19.469-1-28-1m37 0c8.02 3 19.47 1 28 1-8.02-3-19.47-1-28-1m38 0c8.02 3 19.47 1 28 1-8.02-3-19.47-1-28-1m38 0c8.02 3 19.47 1 28 1-8.02-3-19.47-1-28-1m37 0c8.27 3.09 20.19 1 29 1-8.27-3.09-20.19-1-29-1m38 0c8.02 3 19.47 1 28 1-8.02-3-19.47-1-28-1m38 0c8.02 3 19.47 1 28 1-8.02-3-19.47-1-28-1m37 0c8.02 3 19.47 1 28 1-8.02-3-19.47-1-28-1m38 0c8.02 3 19.47 1 28 1-8.02-3-19.47-1-28-1m38 0c8.02 3 19.47 1 28 1-8.02-3-19.47-1-28-1m37 0c8.27 3.09 20.19 1 29 1-8.27-3.09-20.19-1-29-1m38 0c8.02 3 19.47 1 28 1-8.02-3-19.47-1-28-1m38 0c8.02 3 19.47 1 28 1-8.02-3-19.47-1-28-1m38 0c8.02 3 19.47 1 28 1-8.02-3-19.47-1-28-1m37 0c8.02 3 19.47 1 28 1-8.02-3-19.47-1-28-1m38 0c8.02 3 19.47 1 28 1-8.02-3-19.47-1-28-1m38 0c8.02 3 19.47 1 28 1-8.02-3-19.47-1-28-1m38 0c8.02 3 19.47 1 28 1-8.02-3-19.47-1-28-1m37 0c8.02 3 19.47 1 28 1-8.02-3-19.47-1-28-1m38 0c8.02 3 19.47 1 28 1-8.02-3-19.47-1-28-1m38 0c8.02 3 19.47 1 28 1-8.02-3-19.47-1-28-1m38 0c8.02 3 19.47 1 28 1-8.02-3-19.47-1-28-1m37 0c8.02 3 19.47 1 28 1-8.02-3-19.47-1-28-1m38 0c8.02 3 19.47 1 28 1-8.02-3-19.47-1-28-1m38 0c8.02 3 19.47 1 28 1-8.02-3-19.47-1-28-1z"/></svg>